<?xml version="1.0" standalone="no"?>
<!DOCTYPE svg PUBLIC "-//W3C//DTD SVG 20010904//EN"
 "http://www.w3.org/TR/2001/REC-SVG-20010904/DTD/svg10.dtd">
<svg version="1.0" xmlns="http://www.w3.org/2000/svg"
 width="258.000000pt" height="258.000000pt" viewBox="0 0 258.000000 258.000000"
 preserveAspectRatio="xMidYMid meet">
<metadata>
Created by potrace 1.11, written by Peter Selinger 2001-2013
</metadata>
<g transform="translate(0.000000,258.000000) scale(0.100000,-0.100000)"
fill="#000000" stroke="none">
<path d="M202 2549 c-69 -34 -105 -71 -139 -145 l-23 -51 2 -1069 3 -1069 25
-48 c29 -58 86 -112 149 -141 l46 -21 1025 0 1025 0 46 21 c63 29 120 83 149
141 l25 48 3 1069 2 1069 -23 51 c-34 74 -70 111 -139 145 l-61 31 -1027 0
-1027 0 -61 -31z"/>
</g>
</svg>
